<?xml version="1.0"?>
<svg xmlns="http://www.w3.org/2000/svg" xmlns:xlink="http://www.w3.org/1999/xlink" xmlns:svgjs="http://svgjs.com/svgjs" version="1.1" width="512" height="512" x="0" y="0" viewBox="0 0 512 512" style="enable-background:new 0 0 512 512" xml:space="preserve" class=""><g><g xmlns="http://www.w3.org/2000/svg"><path d="m476 56h-440a28.031 28.031 0 0 0 -28 28v280a28.031 28.031 0 0 0 28 28h160.18l-9.6 24h-42.58a8 8 0 0 0 -8 8v16h-48a8 8 0 0 0 0 16h336a8 8 0 0 0 0-16h-48v-16a8 8 0 0 0 -8-8h-42.58l-9.6-24h160.18a28.031 28.031 0 0 0 28-28v-280a28.031 28.031 0 0 0 -28-28zm-116 376v8h-208v-8zm-156.18-16 9.6-24h85.16l9.6 24zm284.18-52a12.01 12.01 0 0 1 -12 12h-440a12.01 12.01 0 0 1 -12-12v-20h464zm0-36h-464v-244a12.01 12.01 0 0 1 12-12h440a12.01 12.01 0 0 1 12 12z" fill="#7510f7" data-original="#000000" style="" class=""/><path d="m256 232a72 72 0 1 0 -72-72 72.081 72.081 0 0 0 72 72zm-31.929-26.032a31.994 31.994 0 0 1 63.858 0 55.824 55.824 0 0 1 -63.858 0zm15.929-61.968a16 16 0 1 1 16 16 16.019 16.019 0 0 1 -16-16zm16-40a55.955 55.955 0 0 1 45.478 88.617 48.183 48.183 0 0 0 -22.258-26.633 32 32 0 1 0 -46.42.016 48.234 48.234 0 0 0 -22.259 26.637 55.955 55.955 0 0 1 45.459-88.637z" fill="#7510f7" data-original="#000000" style="" class=""/><path d="m304 248h-96a8 8 0 0 0 0 16h96a8 8 0 0 0 0-16z" fill="#7510f7" data-original="#000000" style="" class=""/><path d="m288 280h-64a8 8 0 0 0 -8 8v24a8 8 0 0 0 8 8h64a8 8 0 0 0 8-8v-24a8 8 0 0 0 -8-8zm-8 24h-48v-8h48z" fill="#7510f7" data-original="#000000" style="" class=""/></g></g></svg>
